/* XPM */
static char *Free_Converter_com_bitcoin16_95021947[] = {
/* columns rows colors chars-per-pixel */
"16 16 138 2 ",
"   c #0043A3",
".  c #005DA7",
"X  c #0057AC",
"o  c #0060A9",
"O  c #0361A9",
"+  c #0060AA",
"@  c #0261AB",
"#  c #0061AC",
"$  c #0062AD",
"%  c #0363AD",
"&  c #0364AE",
"*  c #0865AD",
"=  c #0B67AE",
"-  c #0B68AD",
";  c #0C68AE",
":  c #1069AD",
">  c #106AAD",
",  c #166DAF",
"<  c #0062B1",
"1  c #0062B3",
"2  c #0065B7",
"3  c #0668B1",
"4  c #0668B3",
"5  c #0869B3",
"6  c #0C69B0",
"7  c #0369B9",
"8  c #076EB9",
"9  c #016DBC",
"0  c #116CB2",
"q  c #126CB2",
"w  c #146CB0",
"e  c #166EB2",
"r  c #106EB5",
"t  c #0170BF",
"y  c #1F72B2",
"u  c #1C72B4",
"i  c #1D72B4",
"p  c #1974B7",
"a  c #1D74B5",
"s  c #1174BD",
"d  c #1677BE",
"f  c #1975BB",
"g  c #2073B3",
"h  c #2275B3",
"j  c #2375B3",
"k  c #2375B4",
"l  c #2275B5",
"z  c #2276B5",
"x  c #2376B5",
"c  c #2475B4",
"v  c #2476B4",
"b  c #2576B4",
"n  c #2476B5",
"m  c #2677B4",
"M  c #2777B4",
"N  c #2677B5",
"B  c #2477B6",
"V  c #2577B6",
"C  c #2477B7",
"Z  c #2677B6",
"A  c #2578B7",
"S  c #2678B6",
"D  c #2678B7",
"F  c #2679B7",
"G  c #2878B6",
"H  c #2879B6",
"J  c #2A7AB6",
"K  c #2178B9",
"L  c #2278B8",
"P  c #2479B8",
"I  c #2679B8",
"U  c #267AB8",
"Y  c #267AB9",
"T  c #277AB9",
"R  c #247ABA",
"E  c #257ABA",
"W  c #267ABA",
"Q  c #277BBA",
"!  c #207ABE",
"~  c #237CBF",
"^  c #2C7DBB",
"/  c #2A7EBE",
"(  c #2A7FBE",
")  c #327FBA",
"_  c #1779C1",
"`  c #227DC0",
"'  c #217EC3",
"]  c #277FC1",
"[  c #2D80BE",
"{  c #3280BB",
"}  c #3182BF",
"|  c #2180C6",
" . c #2882C5",
".. c #2C84C6",
"X. c #3586C2",
"o. c #3A8AC5",
"O. c #3D8CC7",
"+. c #408FCA",
"@. c #4991C8",
"#. c #4C92C8",
"$. c #4B94CA",
"%. c #4996CF",
"&. c #5595C7",
"*. c #5696C7",
"=. c #5C9BCC",
"-. c #519CD3",
";. c #5E9FD0",
":. c #69A1CD",
">. c #65A7D7",
",. c #70A8D3",
"<. c #71A9D3",
"1. c #74A9D2",
"2. c #75ADD7",
"3. c #88B7D9",
"4. c #9CBEDE",
"5. c #A7CBE4",
"6. c #AACDE6",
"7. c #AECDE5",
"8. c #A5CBE8",
"9. c #B7D4EA",
"0. c #BFD7EA",
"q. c #B8D7EE",
"w. c #C1DCF0",
"e. c #D3E4F2",
"r. c #D7E7F3",
"t. c #D9E7F3",
"y. c #DBEAF5",
"u. c #DFECF6",
"i. c #E1EDF6",
"p. c #E1EEF7",
"a. c #E6F0F8",
"s. c #E8F2F9",
"d. c #EAF2F8",
"f. c #F4F8FB",
"g. c #F5F9FC",
"h. c #F9FBFD",
"j. c gray100",
"k. c None",
/* pixels */
"k.k.k.k.k.j n e > g j k.k.k.k.k.",
"k.k.k.j n z + n { ; - J j k.k.k.",
"k.k.j n F % 1.f.j.0.Q = J j k.k.",
"k.j n F & =.j.j.d.j.i.0 a n j k.",
"k.n n Q 4 e.j.;.X r.j.,.% z n k.",
"j n Q K f s.j...7 O.2.@.p F n z ",
"j n T 4 < y.j.' t 9 8 ! } Q n j ",
"j i Q 5.9.g.j.w.q.8. .] / Q F j ",
"z e Q j.j.j.j.j.j.j.' ' / T F j ",
"g g Q #.$.a.j.>.-.%.d ~ [ T n j ",
"j Z Q 3 < i.j._ 2 s O.X.Q F n j ",
"k.n n L r u.j.o.  6.j.<.% F n k.",
"k.j n F # 3.j.t.4.j.j.^ 0 n j k.",
"k.k.j j a ; 7.j.j.h.&.+ n j k.k.",
"k.k.k.j J w = *.:.) + J j k.k.k.",
"k.k.k.k.k.j g + . > n k.k.k.k.k."
};
