/* XPM */
static char *Free_Converter_com_bitcoin32_26271948[] = {
/* columns rows colors chars-per-pixel */
"32 32 86 1 ",
"  c #0054AB",
". c #005EA9",
"X c #0262AC",
"o c #0A66AE",
"O c #0F6AAF",
"+ c #106BAF",
"@ c #0164B2",
"# c #056AB4",
"$ c #0A6BB3",
"% c #0064B9",
"& c #076FBE",
"* c #0A6FB9",
"= c #116EB7",
"- c #1E6EB6",
"; c #0B71BC",
": c #1670B5",
"> c #1C73B5",
", c #1475BC",
"< c #1B75BA",
"1 c #2376B4",
"2 c #2578B7",
"3 c #297AB7",
"4 c #2176B8",
"5 c #267AB9",
"6 c #297CBB",
"7 c #307FBB",
"8 c #0D75C1",
"9 c #1476C1",
"0 c #1678C1",
"q c #187AC2",
"w c #227FC3",
"e c #2A7FC0",
"r c #2B80BF",
"t c #3280BC",
"y c #2581C4",
"u c #2C83C3",
"i c #3187C6",
"p c #3589C7",
"a c #3C8AC4",
"s c #3389C9",
"d c #3D8DC9",
"f c #448DC4",
"g c #408EC9",
"h c #4492CC",
"j c #5092C5",
"k c #5B9ACB",
"l c #629DCE",
"z c #66A1CF",
"x c #63A4D4",
"c c #6CA6D2",
"v c #6CA8D6",
"b c #6FADDA",
"n c #70A6D1",
"m c #75AAD4",
"M c #7BAFD7",
"N c #7DB0D7",
"B c #73B0DC",
"V c #7CB4DD",
"C c #84B2D7",
"Z c #81B5DD",
"A c #8FBBDD",
"S c #93BEDE",
"D c #9ABADD",
"F c #87BAE0",
"G c #8BBCE0",
"H c #A3C7E3",
"J c #A7CAE5",
"K c #ADCEE6",
"L c #B0CFE7",
"P c #AFD0E8",
"I c #B5D1E7",
"U c #B3D1E9",
"Y c #BAD4E9",
"T c #C2D9EB",
"R c #CADEEF",
"E c #C7DEF0",
"W c #CADEF0",
"Q c #CEE0EE",
"! c #CDE1F1",
"~ c #D3E4F2",
"^ c #DCE9F5",
"/ c #E2EDF6",
"( c #EAF2F9",
") c #F5F9FC",
"_ c #FFFFFF",
"` c None",
/* pixels */
"````````````11111111````````````",
"`````````11111111211111`````````",
"```````11111131+o+1111111```````",
"``````1111222XXttto.222111``````",
"`````1112231.fL___Yj.>31111`````",
"````1111256.m_______C.122111````",
"```1112226.k_________n.621111```",
"``1112226>:)___(D/____1=521111``",
"``1112546@c___^< =~___MX652111``",
"`11122666@J___k@s@h___R@6552111`",
"`11126666#L___p0iyuUIYA:5655111`",
"`1124566u#L___hqsiu;**,u6664211`",
"1113536ru$P___hqsssiuuu666552211",
"112156### H___y%8880iiuuu6652111",
"111545zmvkW___ZxBbBxyiuee6652111",
"1111<>)____________^9yuuu6632111",
"1112><^____________E9uuu66655211",
"1122>>)____________^9uuuu6655211",
"112225cCMx!___GbVVFvwuu6ew351111",
"112226#@# H___w@88&0piuu66352111",
"`11155366*P___hqssi,,*<u6655111`",
"`11125666#L___d,iuudgga66552511`",
"`11115566#U___p*p,u___T#5652111`",
"``1125456XA___A < M___K.645111``",
"``1112136#f____m-z____k@221111``",
"```1111516XT____)____~X222111```",
"````111123O>(_______)2o32111````",
"`````111126X1T_____~3.61211`````",
"``````111123o.kHYJlOX31111``````",
"```````1111131..X..-31111```````",
"`````````11111111111111`````````",
"````````````11111111````````````"
};
