/* XPM */
static char *Free_Converter_com_bitcoin64_91241948[] = {
/* columns rows colors chars-per-pixel */
"64 64 91 1 ",
"  c #005EAB",
". c #005FB1",
"X c #0162AD",
"o c #0967AF",
"O c #0C69AF",
"+ c #0164B1",
"@ c #046AB5",
"# c #0A6CB4",
"$ c #056DBB",
"% c #096FBA",
"& c #146EB3",
"* c #0F70B7",
"= c #0C72BC",
"- c #1571B5",
"; c #1B73B5",
": c #1273BB",
"> c #1C76BA",
", c #1F79BC",
"< c #2476B4",
"1 c #2578B7",
"2 c #2177B8",
"3 c #267AB9",
"4 c #297DBC",
"5 c #317FBB",
"6 c #0E76C1",
"7 c #1076C0",
"8 c #1678C0",
"9 c #197CC4",
"0 c #257FC2",
"q c #2B80BF",
"w c #2682C5",
"e c #2C83C3",
"r c #2F87C8",
"t c #2D88CA",
"y c #3285C3",
"u c #3288C7",
"i c #3F8BC5",
"p c #3088C9",
"a c #448DC5",
"s c #4A8EC3",
"d c #4D90C6",
"f c #4A93CA",
"g c #5092C6",
"h c #5194C8",
"j c #5699CC",
"k c #5E9DCD",
"l c #539DD3",
"z c #629ECD",
"x c #629FD0",
"c c #5DA1D3",
"v c #67A0CD",
"b c #6CA3CF",
"n c #63A3D3",
"m c #6CA5D2",
"M c #6FA9D6",
"N c #73ABD5",
"B c #7BADD4",
"V c #73ACD8",
"C c #7EB0D8",
"Z c #80AFD5",
"A c #83B1D5",
"S c #82B4DB",
"D c #8AB6DA",
"F c #8DBBDE",
"G c #93BBDC",
"H c #8EBBE0",
"J c #9BC1DF",
"K c #9DC3E1",
"L c #A2C6E3",
"P c #A3C9E7",
"I c #ADCCE5",
"U c #B2CEE6",
"Y c #B8D2E7",
"T c #B4D3EB",
"R c #BBD5EA",
"E c #BED9ED",
"W c #C4DBED",
"Q c #CBDEEF",
"! c #C5DEF0",
"~ c #C8DFF1",
"^ c #CFE2F1",
"/ c #D5E6F3",
"( c #D8E7F3",
") c #D7E8F5",
"_ c #DBE9F4",
"` c #E3EEF7",
"' c #EAF1F8",
"] c #F2F6FB",
"[ c #F7FAFC",
"{ c #FFFFFF",
"} c None",
/* pixels */
"}}}}}}}}}}}}}}}}}}}}}}}}}}<<<<<;<<<<<<}}}}}}}}}}}}}}}}}}}}}}}}}}",
"}}}}}}}}}}}}}}}}}}}}}}<<<<<<<<<<<<<<<<<<<<}}}}}}}}}}}}}}}}}}}}}}",
"}}}}}}}}}}}}}}}}}}}}<<<<<<<<<<<<<<<<<<<<<<<<}}}}}}}}}}}}}}}}}}}}",
"}}}}}}}}}}}}}}}}}<<;<<<<<<<<<<<<<<<<<<<<<<<<<<<}}}}}}}}}}}}}}}}}",
"}}}}}}}}}}}}}}}}<<<<<<<<<<<1<<<1<11<<<<<<<<<<<<<}}}}}}}}}}}}}}}}",
"}}}}}}}}}}}}}}<<<<<<<<<1<<111111111<<<1<11<<<<<<<<}}}}}}}}}}}}}}",
"}}}}}}}}}}}}}<<<<<<<<<11111111&OXXo&<111<31<<<<<<<<}}}}}}}}}}}}}",
"}}}}}}}}}}}<<<<<<1<<1111111<XX1gzzg5o <1<<<<<<<<<<<;<}}}}}}}}}}}",
"}}}}}}}}}}<<<<<<1111111113XOzU'{{{{]Rm; 1111111<<<<<<<}}}}}}}}}}",
"}}}}}}}}}<<;<<<<11111133<Xs~{{{{{{{{{{_z &413311<<<<<<<}}}}}}}}}",
"}}}}}}}}<<<<<<<<<311133<.B{{{{{{{{{{{{{{GX&43<1111<<<<<<}}}}}}}}",
"}}}}}}}<<<<<<<<<3<33313 D{{{{{{{{{{{{{{{{I <3<111<<<<<<<<}}}}}}}",
"}}}}}}}<<<<<<3<3<333<5 b{{{{{{{{{{{{{{{{{{G 13311111<<1<<}}}}}}}",
"}}}}}}<<<<<13<3<33334*4{{{{{{{{{{{{{{{{{{{{sX433111<1<<<<<}}}}}}",
"}}}}}<<<<<11<13333334XY{{{{{{{{{{{{{{{{{{{{_O2333311<3<<<<<}}}}}",
"}}}}}<<<<<3<33<33343*a{{{{{{{{{IvzK{{{{{{{{{v+433<11<<<<<<<}}}}}",
"}}}}<<<<<11111334344XJ{{{{{{{{v++@.f[{{{{{{{Ro43333<3<<1<<<<}}}}",
"}}}<<<<<1111<1334443:_{{{{{{{S.qeee+k{{{{{{{[q:33333<331<<<<<}}}",
"}}}<<<<<11133344344:i{{{{{{{_:9eeeee@E{{{{{{{k#443333<3<<<<<<}}}",
"}}}<<<<11113334344q#k{{{{{{{F@yeeewe@m{{{{{{{C+4444333<31<<<<}}}",
"}}<<<<<<3<333344444#M{{{{{{{n=eeeeee:f{{{{{{{K+4344<33<31<<<<<}}",
"}}<<<<<13<333344440@N{{{{{{{c:ruereuwuSSSSSAAj>44443333<11<<<<}}",
"}<<<<<11<3334444e4e#N{{{{{{{n7pperueuw%=%@$@#>y4444343<311<<<<<}",
"}<<<<<<1333334444eq%N{{{{{{{n7ptputrrreeeeeeeqe44444334<1<<<<<<}",
"}<<<<<51141444444qq*V{{{{{{{n6ttppptpueeeeeeee0q4q444<3311<<<<<}",
"}<<<<1<11114444ee0e%N{{{{{{{M6ttppppptrteeeeee4e44444433111<<<<}",
"<<<<<111131544404eq%V{{{{{{{n6ppppppptpreueue4e4e443433<1111<<<<",
"<<<<<<111334244404e@V{{{{{{{n6ttttttrrrerreeeeqeq444444<11<<<<<<",
";<<<<<113344-*&*:::.n{{{{{{{l$9999999980pueeeeeqe4444314111<<<<;",
"<;<<<<11142;K~WWWWWR({{{{{{{^E!!!!!!!!~S8reeeeq04e44434<111<<<<<",
"<<<<<<1131<&'{{{{{{{{{{{{{{{{{{{{{{{{{{T$rueeeeqe444444111<<<<<<",
"<<<<<111343-~{{{{{{{{{{{{{{{{{{{{{{{{{{P6eeeeee4eqq4351411<<<<<<",
"<<<<1111332-Q{{{{{{{{{{{{{{{{{{{{{{{{{{P6ereeeeq40544333<311<<<<",
"<<<<<<11331-Q{{{{{{{{{{{{{{{{{{{{{{{{{{P=rweeeqee44435333<11<<<<",
"<<<<111133<-Q{{{{{{{{{{{{{{{{{{{{{{{{{{P=rpeeee00e04414333<1<<;<",
"<<<<1<1133>&`{{{{{{{{{{{{{{{{{{{{{{{{{{T=reeeee4454444113<31<<<<",
"<<<<<111333;I(/(///^`{{{{{{{`^))))))))(H7eueeee4q44443141111<<<<",
"<<<<<11133332>>>,,,+m{{{{{{{c$wwwwwww0wwpeeee4eey444441411<<<<<<",
"}<<<<11133342,22320@M{{{{{{{n6wwwwrwwwwreeeeeqqq4444313111<<<<<}",
"}<<<<111333344e4wee@M{{{{{{{n7ppppprrrreeeeeqeeq0444343111<<<<<}",
"}<;<<<11333353444e4%M{{{{{{{n6pttrrrtetueeeeqqe44435331111<<<<<}",
"}<<<<<<1<333344444e%N{{{{{{{n=perrureeeeeeeqqqq4444333311<<<<<<}",
"}}<<<<<1<333344444e#N{{{{{{{n=urrreeee=%=%###>q4444333111<1<<<}}",
"}}<<<<<13<333344q44@N{{{{{{{c=eeeeeeeynnnknnnf24443333111<<<<<}}",
"}}}<<<<<3<333334444@N{{{{{{{n%eeeeee:f{{{{{{{J+434333111<<<<<}}}",
"}}}<<<<<<33<3343444#z{{{{{{{S@eeee4e$v{{{{{{{A+443331111<<<<<}}}",
"}}}<<<<<<<3<<334444*a{{{{{{{^#4eeyqe+U{{{{{{{zo433331111<<<<<}}}",
"}}}}<<<<<<33<3333342>`{{{{{{{m.q0qy+a{{{{{{{{y-333321<1<<<<<}}}}",
"}}}}}<<<<<<<<3333434XL{{{{{{{[aX*%X4'{{{{{{{~X3333<311<<<<<}}}}}",
"}}}}}<<<<<<13<<33344#h{{{{{{{{{DaaB]{{{{{{{{NX533<3<1<<<<<<}}}}}",
"}}}}}}<<<<<<133<<434<+Q{{{{{{{{{{{{{{{{{{{{'&;3311<31<<<<<}}}}}}",
"}}}}}}}<<<<<11<33<334oa{{{{{{{{{{{{{{{{{{{{vX1111111<<<<<}}}}}}}",
"}}}}}}}<<<<<<<113<3314 D{{{{{{{{{{{{{{{{{{U <31111<<<<<<<}}}}}}}",
"}}}}}}}};<<<<<<<<33<<1; I{{{{{{{{{{{{{{{{~o&111111<<<<<<}}}}}}}}",
"}}}}}}}}}<<<<<<<4<<34<5&XJ{{{{{{{{{{{{{{YOO111<<<<<<<<;}}}}}}}}}",
"}}}}}}}}}}<<<<<<<<<<3<11& v'{{{{{{{{{{[AXO5<11<<<<<<<<}}}}}}}}}}",
"}}}}}}}}}}}<<<<<<<<<<1111< <A^{{{{{{_G5 <111<<<<<<<<<}}}}}}}}}}}",
"}}}}}}}}}}}}}<<<<<<<<<<1111& OsvZAbs; O<<<<<1<<<<<<}}}}}}}}}}}}}",
"}}}}}}}}}}}}}}<<<<<<<<<<11<<<<o   Xo<1<<<<<<<<<<;<}}}}}}}}}}}}}}",
"}}}}}}}}}}}}}}}}<<<1<<<<1<<<<<<<11<<<<<<;<<<<<<<}}}}}}}}}}}}}}}}",
"}}}}}}}}}}}}}}}}}}<<<<<<<<<<<<<<<<<<<<<<<<<<<<}}}}}}}}}}}}}}}}}}",
"}}}}}}}}}}}}}}}}}}}}<<<<<<<<<<<<<<<<<<<<<<<<}}}}}}}}}}}}}}}}}}}}",
"}}}}}}}}}}}}}}}}}}}}}}<<<<<<<<<<;<<<<<<<<<}}}}}}}}}}}}}}}}}}}}}}",
"}}}}}}}}}}}}}}}}}}}}}}}}}}}<<<<<<<<<<}}}}}}}}}}}}}}}}}}}}}}}}}}}"
};
