<svg id="svg" version="1.1" width="400" height="400" viewBox="0 0 400 400" xmlns="http://www.w3.org/2000/svg" xmlns:xlink="http://www.w3.org/1999/xlink" ><g id="svgg"><path id="path0" d="M199.000 48.821 C 192.227 49.735,184.565 51.634,180.549 53.395 C 159.372 62.678,144.361 78.123,135.835 99.400 C 133.720 104.678,131.987 110.406,131.175 114.800 C 130.952 116.010,130.479 118.530,130.125 120.400 C 129.580 123.275,129.454 128.356,129.309 153.300 L 129.137 182.800 103.011 182.800 C 79.557 182.800,76.861 182.865,76.643 183.433 C 76.326 184.259,76.326 228.941,76.643 229.767 C 76.861 230.335,79.557 230.400,103.009 230.400 L 129.132 230.400 129.320 257.100 C 129.442 274.477,129.664 284.568,129.956 286.000 C 130.202 287.210,130.595 289.280,130.828 290.600 C 131.326 293.407,131.947 296.190,132.392 297.600 C 132.565 298.150,132.929 299.410,133.199 300.400 C 133.470 301.390,133.834 302.560,134.007 303.000 C 134.181 303.440,134.908 305.330,135.623 307.200 C 142.843 326.093,157.370 342.517,174.397 351.041 C 220.130 373.935,272.678 344.349,282.815 290.000 C 283.360 287.080,284.398 277.442,284.399 275.300 L 284.400 273.600 260.847 273.600 L 237.293 273.600 237.052 274.500 C 236.919 274.995,236.808 276.448,236.805 277.729 C 236.795 282.121,234.190 290.758,231.480 295.390 C 216.381 321.185,185.727 315.024,177.801 284.600 C 176.535 279.741,176.354 275.406,176.477 253.000 L 176.600 230.600 211.800 230.400 L 247.000 230.200 247.000 206.600 L 247.000 183.000 211.800 182.800 L 176.600 182.600 176.480 157.400 C 176.335 126.804,176.596 123.936,180.311 115.400 C 183.291 108.553,190.813 100.150,195.594 98.327 C 196.141 98.119,197.131 97.705,197.794 97.409 C 214.722 89.833,236.742 108.117,236.805 129.800 C 236.808 130.900,236.919 132.205,237.052 132.700 L 237.293 133.600 260.659 133.600 C 282.067 133.600,284.046 133.544,284.280 132.936 C 284.560 132.205,283.783 122.693,283.157 119.200 C 279.448 98.491,270.853 81.939,257.073 68.967 C 249.894 62.209,244.001 58.352,234.000 53.868 C 232.213 53.066,225.946 51.019,223.600 50.470 C 222.610 50.239,221.350 49.945,220.800 49.818 C 215.423 48.577,204.512 48.078,199.000 48.821 " stroke="none" fill="#fbfbfb" fill-rule="evenodd"></path><path id="path1" d="M178.500 0.274 C 176.465 0.360,174.800 0.603,174.800 0.815 C 174.800 1.027,173.551 1.200,172.024 1.200 C 170.497 1.200,169.136 1.380,169.000 1.600 C 168.864 1.820,167.784 2.000,166.600 2.000 C 165.416 2.000,164.336 2.180,164.200 2.400 C 164.064 2.620,163.063 2.800,161.976 2.800 C 160.889 2.800,160.000 2.980,160.000 3.200 C 160.000 3.420,159.291 3.600,158.424 3.600 C 157.557 3.600,156.736 3.780,156.600 4.000 C 156.464 4.220,155.553 4.400,154.576 4.400 C 153.599 4.400,152.800 4.580,152.800 4.800 C 152.800 5.020,152.080 5.200,151.200 5.200 C 150.320 5.200,149.600 5.380,149.600 5.600 C 149.600 5.820,148.970 6.000,148.200 6.000 C 147.430 6.000,146.800 6.180,146.800 6.400 C 146.800 6.620,146.170 6.800,145.400 6.800 C 144.630 6.800,144.000 6.980,144.000 7.200 C 144.000 7.420,143.370 7.600,142.600 7.600 C 141.830 7.600,141.200 7.780,141.200 8.000 C 141.200 8.220,140.660 8.400,140.000 8.400 C 139.340 8.400,138.800 8.580,138.800 8.800 C 138.800 9.020,138.260 9.200,137.600 9.200 C 136.940 9.200,136.400 9.356,136.400 9.546 C 136.400 9.736,135.635 9.997,134.700 10.125 C 133.027 10.355,128.270 12.044,125.905 13.247 C 125.523 13.441,124.938 13.600,124.605 13.600 C 124.272 13.600,124.000 13.780,124.000 14.000 C 124.000 14.220,123.561 14.400,123.024 14.400 C 122.487 14.400,121.936 14.580,121.800 14.800 C 121.664 15.020,121.203 15.200,120.776 15.200 C 120.349 15.200,120.000 15.380,120.000 15.600 C 120.000 15.820,119.640 16.000,119.200 16.000 C 118.760 16.000,118.400 16.180,118.400 16.400 C 118.400 16.620,118.051 16.800,117.624 16.800 C 117.197 16.800,116.736 16.980,116.600 17.200 C 116.464 17.420,116.003 17.600,115.576 17.600 C 115.149 17.600,114.800 17.780,114.800 18.000 C 114.800 18.220,114.566 18.400,114.280 18.400 C 113.544 18.400,111.607 19.341,111.603 19.700 C 111.601 19.865,111.240 20.000,110.800 20.000 C 110.360 20.000,110.000 20.180,110.000 20.400 C 110.000 20.620,109.640 20.800,109.200 20.800 C 108.760 20.800,108.400 20.980,108.400 21.200 C 108.400 21.420,108.040 21.600,107.600 21.600 C 107.160 21.600,106.800 21.780,106.800 22.000 C 106.800 22.220,106.440 22.400,106.000 22.400 C 105.560 22.400,105.200 22.580,105.200 22.800 C 105.200 23.020,104.964 23.200,104.675 23.200 C 104.387 23.200,103.764 23.560,103.292 24.000 C 102.820 24.440,102.156 24.800,101.817 24.800 C 101.478 24.800,101.200 24.980,101.200 25.200 C 101.200 25.420,100.840 25.600,100.400 25.600 C 99.960 25.600,99.598 25.735,99.595 25.900 C 99.593 26.065,98.828 26.556,97.895 26.990 C 96.009 27.869,93.871 29.240,93.667 29.700 C 93.593 29.865,93.228 30.000,92.855 30.000 C 92.482 30.000,91.917 30.360,91.600 30.800 C 91.283 31.240,90.743 31.600,90.400 31.600 C 90.057 31.600,89.517 31.960,89.200 32.400 C 88.883 32.840,88.343 33.200,88.000 33.200 C 87.657 33.200,87.117 33.560,86.800 34.000 C 86.483 34.440,85.943 34.800,85.600 34.800 C 85.257 34.800,84.717 35.160,84.400 35.600 C 84.083 36.040,83.620 36.400,83.371 36.400 C 83.122 36.400,82.354 36.940,81.663 37.600 C 80.972 38.260,80.252 38.800,80.063 38.800 C 79.874 38.800,79.154 39.340,78.463 40.000 C 77.772 40.660,77.098 41.200,76.964 41.200 C 76.830 41.200,76.242 41.713,75.655 42.341 C 75.069 42.968,74.052 43.761,73.395 44.102 C 72.738 44.443,71.326 45.550,70.258 46.561 C 69.190 47.573,68.186 48.400,68.028 48.400 C 67.869 48.400,66.043 50.104,63.970 52.187 C 59.232 56.945,56.945 59.232,52.187 63.970 C 50.104 66.043,48.400 67.869,48.400 68.028 C 48.400 68.186,47.573 69.190,46.561 70.258 C 45.550 71.326,44.443 72.738,44.102 73.395 C 43.761 74.052,42.968 75.069,42.341 75.655 C 41.713 76.242,41.200 76.830,41.200 76.964 C 41.200 77.098,40.660 77.772,40.000 78.463 C 39.340 79.154,38.800 79.874,38.800 80.063 C 38.800 80.252,38.260 80.972,37.600 81.663 C 36.940 82.354,36.400 83.122,36.400 83.371 C 36.400 83.620,36.040 84.083,35.600 84.400 C 35.160 84.717,34.800 85.257,34.800 85.600 C 34.800 85.943,34.440 86.483,34.000 86.800 C 33.560 87.117,33.200 87.657,33.200 88.000 C 33.200 88.343,32.840 88.883,32.400 89.200 C 31.960 89.517,31.600 90.057,31.600 90.400 C 31.600 90.743,31.240 91.283,30.800 91.600 C 30.360 91.917,30.000 92.414,30.000 92.705 C 30.000 92.996,29.636 93.624,29.192 94.101 C 28.747 94.578,28.083 95.651,27.715 96.484 C 27.347 97.318,26.901 98.000,26.723 98.000 C 26.545 98.000,26.400 98.360,26.400 98.800 C 26.400 99.240,26.220 99.600,26.000 99.600 C 25.780 99.600,25.600 99.960,25.600 100.400 C 25.600 100.840,25.420 101.200,25.200 101.200 C 24.980 101.200,24.800 101.478,24.800 101.817 C 24.800 102.156,24.440 102.820,24.000 103.292 C 23.560 103.764,23.200 104.387,23.200 104.675 C 23.200 104.964,23.020 105.200,22.800 105.200 C 22.580 105.200,22.400 105.560,22.400 106.000 C 22.400 106.440,22.220 106.800,22.000 106.800 C 21.780 106.800,21.600 107.160,21.600 107.600 C 21.600 108.040,21.420 108.400,21.200 108.400 C 20.980 108.400,20.800 108.745,20.800 109.167 C 20.800 109.588,20.665 109.993,20.500 110.067 C 20.076 110.255,17.600 115.199,17.600 115.856 C 17.600 116.155,17.420 116.400,17.200 116.400 C 16.980 116.400,16.800 116.850,16.800 117.400 C 16.800 117.950,16.620 118.400,16.400 118.400 C 16.180 118.400,16.000 118.760,16.000 119.200 C 16.000 119.640,15.820 120.000,15.600 120.000 C 15.380 120.000,15.200 120.349,15.200 120.776 C 15.200 121.203,15.020 121.664,14.800 121.800 C 14.580 121.936,14.400 122.487,14.400 123.024 C 14.400 123.561,14.220 124.000,14.000 124.000 C 13.780 124.000,13.600 124.360,13.600 124.800 C 13.600 125.240,13.420 125.600,13.200 125.600 C 12.980 125.600,12.800 125.962,12.800 126.405 C 12.800 126.848,12.641 127.523,12.447 127.905 C 11.238 130.281,10.000 134.081,10.000 135.414 C 10.000 135.956,9.820 136.400,9.600 136.400 C 9.380 136.400,9.200 136.940,9.200 137.600 C 9.200 138.260,9.020 138.800,8.800 138.800 C 8.580 138.800,8.400 139.340,8.400 140.000 C 8.400 140.660,8.220 141.200,8.000 141.200 C 7.780 141.200,7.600 141.729,7.600 142.376 C 7.600 143.023,7.420 143.664,7.200 143.800 C 6.980 143.936,6.800 144.566,6.800 145.200 C 6.800 145.834,6.620 146.464,6.400 146.600 C 6.180 146.736,6.000 147.467,6.000 148.224 C 6.000 148.981,5.820 149.600,5.600 149.600 C 5.380 149.600,5.200 150.320,5.200 151.200 C 5.200 152.080,5.020 152.800,4.800 152.800 C 4.580 152.800,4.400 153.509,4.400 154.376 C 4.400 155.243,4.220 156.064,4.000 156.200 C 3.780 156.336,3.600 157.247,3.600 158.224 C 3.600 159.201,3.420 160.000,3.200 160.000 C 2.980 160.000,2.800 160.889,2.800 161.976 C 2.800 163.063,2.620 164.064,2.400 164.200 C 2.180 164.336,2.000 165.416,2.000 166.600 C 2.000 167.784,1.820 168.864,1.600 169.000 C 1.380 169.136,1.200 170.482,1.200 171.990 C 1.200 173.829,1.035 174.788,0.700 174.900 C -0.032 175.144,-0.032 224.856,0.700 225.100 C 1.036 225.212,1.200 226.176,1.200 228.033 C 1.200 229.611,1.372 230.800,1.600 230.800 C 1.822 230.800,2.000 231.867,2.000 233.200 C 2.000 234.533,2.178 235.600,2.400 235.600 C 2.620 235.600,2.800 236.500,2.800 237.600 C 2.800 238.700,2.980 239.600,3.200 239.600 C 3.420 239.600,3.600 240.410,3.600 241.400 C 3.600 242.390,3.780 243.200,4.000 243.200 C 4.220 243.200,4.400 243.999,4.400 244.976 C 4.400 245.953,4.580 246.864,4.800 247.000 C 5.020 247.136,5.200 247.856,5.200 248.600 C 5.200 249.344,5.380 250.064,5.600 250.200 C 5.820 250.336,6.000 250.977,6.000 251.624 C 6.000 252.271,6.180 252.800,6.400 252.800 C 6.620 252.800,6.800 253.520,6.800 254.400 C 6.800 255.280,6.980 256.000,7.200 256.000 C 7.420 256.000,7.600 256.540,7.600 257.200 C 7.600 257.860,7.780 258.400,8.000 258.400 C 8.220 258.400,8.400 259.030,8.400 259.800 C 8.400 260.570,8.580 261.200,8.800 261.200 C 9.020 261.200,9.200 261.740,9.200 262.400 C 9.200 263.060,9.363 263.600,9.562 263.600 C 9.762 263.600,10.049 264.500,10.200 265.600 C 10.351 266.700,10.638 267.600,10.838 267.600 C 11.037 267.600,11.200 268.039,11.200 268.576 C 11.200 269.113,11.380 269.664,11.600 269.800 C 11.820 269.936,12.000 270.315,12.000 270.643 C 12.000 270.971,12.360 271.984,12.800 272.894 C 13.240 273.805,13.600 274.876,13.600 275.275 C 13.600 275.674,13.780 276.000,14.000 276.000 C 14.220 276.000,14.400 276.360,14.400 276.800 C 14.400 277.240,14.547 277.600,14.728 277.600 C 14.908 277.600,15.300 278.500,15.600 279.600 C 15.900 280.700,16.292 281.600,16.472 281.600 C 16.653 281.600,16.800 281.960,16.800 282.400 C 16.800 282.840,16.980 283.200,17.200 283.200 C 17.420 283.200,17.600 283.560,17.600 284.000 C 17.600 284.440,17.780 284.800,18.000 284.800 C 18.220 284.800,18.400 285.160,18.400 285.600 C 18.400 286.040,18.580 286.400,18.800 286.400 C 19.020 286.400,19.200 286.634,19.200 286.920 C 19.200 287.656,20.141 289.593,20.500 289.597 C 20.665 289.599,20.800 289.926,20.800 290.325 C 20.800 290.723,21.160 291.436,21.600 291.908 C 22.040 292.380,22.400 293.044,22.400 293.383 C 22.400 293.722,22.580 294.000,22.800 294.000 C 23.020 294.000,23.200 294.360,23.200 294.800 C 23.200 295.240,23.380 295.600,23.600 295.600 C 23.820 295.600,24.000 295.960,24.000 296.400 C 24.000 296.840,24.180 297.200,24.400 297.200 C 24.620 297.200,24.800 297.560,24.800 298.000 C 24.800 298.440,24.980 298.800,25.200 298.800 C 25.420 298.800,25.600 299.036,25.600 299.325 C 25.600 299.613,25.960 300.236,26.400 300.708 C 26.840 301.180,27.200 301.802,27.200 302.090 C 27.200 302.379,27.650 303.277,28.200 304.086 C 28.750 304.895,29.200 305.665,29.200 305.796 C 29.200 305.926,29.560 306.420,30.000 306.892 C 30.440 307.364,30.800 307.987,30.800 308.275 C 30.800 308.564,30.968 308.800,31.173 308.800 C 31.378 308.800,31.653 309.138,31.784 309.551 C 31.916 309.964,32.467 310.819,33.011 311.451 C 33.554 312.083,33.999 312.785,34.000 313.012 C 34.000 313.238,34.360 313.683,34.800 314.000 C 35.240 314.317,35.600 314.857,35.600 315.200 C 35.600 315.543,35.960 316.083,36.400 316.400 C 36.840 316.717,37.200 317.180,37.200 317.429 C 37.200 317.678,37.740 318.446,38.400 319.137 C 39.060 319.828,39.600 320.539,39.600 320.718 C 39.600 320.897,40.185 321.682,40.900 322.463 C 41.615 323.244,42.560 324.377,43.000 324.981 C 43.440 325.585,44.295 326.620,44.900 327.282 C 45.505 327.943,46.000 328.642,46.000 328.834 C 46.000 329.026,46.945 330.135,48.100 331.299 C 49.255 332.464,50.723 334.112,51.362 334.963 C 52.001 335.813,53.664 337.610,55.057 338.955 C 57.854 341.655,59.548 343.332,62.101 345.928 C 63.035 346.878,64.422 348.138,65.183 348.728 C 65.944 349.317,67.547 350.745,68.745 351.900 C 69.944 353.055,71.054 354.000,71.212 354.000 C 71.370 354.000,72.287 354.720,73.249 355.600 C 74.212 356.480,75.122 357.200,75.271 357.200 C 75.421 357.200,75.781 357.432,76.071 357.714 C 76.362 357.997,77.320 358.760,78.200 359.410 C 79.080 360.060,80.091 360.908,80.447 361.296 C 80.803 361.683,81.299 362.000,81.551 362.000 C 81.802 362.000,82.572 362.540,83.263 363.200 C 83.954 363.860,84.722 364.400,84.971 364.400 C 85.220 364.400,85.683 364.760,86.000 365.200 C 86.317 365.640,86.857 366.000,87.200 366.000 C 87.543 366.000,88.083 366.360,88.400 366.800 C 88.717 367.240,89.257 367.600,89.600 367.600 C 89.943 367.600,90.483 367.960,90.800 368.400 C 91.117 368.840,91.614 369.200,91.905 369.200 C 92.196 369.200,92.789 369.531,93.223 369.936 C 93.658 370.341,94.505 370.926,95.107 371.235 C 95.708 371.545,96.290 371.889,96.400 371.999 C 96.719 372.319,98.386 373.241,101.400 374.764 C 102.940 375.543,104.260 376.319,104.333 376.490 C 104.407 376.660,104.812 376.800,105.233 376.800 C 105.655 376.800,106.000 376.980,106.000 377.200 C 106.000 377.420,106.360 377.600,106.800 377.600 C 107.240 377.600,107.600 377.780,107.600 378.000 C 107.600 378.220,107.945 378.400,108.367 378.400 C 108.788 378.400,109.193 378.537,109.267 378.705 C 109.478 379.189,117.724 383.206,118.500 383.203 C 118.885 383.201,119.200 383.380,119.200 383.600 C 119.200 383.820,119.560 384.000,120.000 384.000 C 120.440 384.000,120.800 384.180,120.800 384.400 C 120.800 384.620,121.149 384.800,121.576 384.800 C 122.003 384.800,122.464 384.980,122.600 385.200 C 122.736 385.420,123.287 385.600,123.824 385.600 C 124.361 385.600,124.800 385.780,124.800 386.000 C 124.800 386.220,125.072 386.400,125.405 386.400 C 125.738 386.400,126.368 386.580,126.805 386.800 C 127.242 387.020,127.958 387.380,128.395 387.600 C 128.832 387.820,129.552 388.000,129.995 388.000 C 130.438 388.000,130.800 388.180,130.800 388.400 C 130.800 388.620,131.162 388.800,131.605 388.800 C 132.048 388.800,132.723 388.976,133.105 389.191 C 134.533 389.994,140.067 391.600,141.408 391.600 C 142.174 391.600,142.800 391.780,142.800 392.000 C 142.800 392.220,143.340 392.400,144.000 392.400 C 144.660 392.400,145.200 392.580,145.200 392.800 C 145.200 393.020,145.830 393.200,146.600 393.200 C 147.370 393.200,148.000 393.380,148.000 393.600 C 148.000 393.820,148.720 394.000,149.600 394.000 C 150.480 394.000,151.200 394.180,151.200 394.400 C 151.200 394.620,151.920 394.800,152.800 394.800 C 153.680 394.800,154.400 394.980,154.400 395.200 C 154.400 395.420,155.109 395.600,155.976 395.600 C 156.843 395.600,157.664 395.780,157.800 396.000 C 157.936 396.220,158.836 396.400,159.800 396.400 C 160.764 396.400,161.664 396.580,161.800 396.800 C 161.936 397.020,162.926 397.200,164.000 397.200 C 165.074 397.200,166.064 397.380,166.200 397.600 C 166.336 397.820,167.607 398.000,169.024 398.000 C 170.475 398.000,171.600 398.175,171.600 398.400 C 171.600 398.630,172.840 398.800,174.520 398.800 C 176.323 398.800,177.631 398.991,177.940 399.300 C 178.670 400.030,222.057 400.030,222.300 399.300 C 222.413 398.960,223.416 398.800,225.433 398.800 C 227.144 398.800,228.400 398.631,228.400 398.400 C 228.400 398.171,229.600 398.000,231.200 398.000 C 232.800 398.000,234.000 397.829,234.000 397.600 C 234.000 397.380,234.889 397.200,235.976 397.200 C 237.063 397.200,238.064 397.020,238.200 396.800 C 238.336 396.580,239.236 396.400,240.200 396.400 C 241.164 396.400,242.064 396.220,242.200 396.000 C 242.336 395.780,243.157 395.600,244.024 395.600 C 244.891 395.600,245.600 395.420,245.600 395.200 C 245.600 394.980,246.320 394.800,247.200 394.800 C 248.080 394.800,248.800 394.620,248.800 394.400 C 248.800 394.180,249.520 394.000,250.400 394.000 C 251.280 394.000,252.000 393.820,252.000 393.600 C 252.000 393.380,252.619 393.200,253.376 393.200 C 254.133 393.200,254.864 393.020,255.000 392.800 C 255.136 392.580,255.777 392.400,256.424 392.400 C 257.071 392.400,257.600 392.220,257.600 392.000 C 257.600 391.780,258.136 391.600,258.792 391.600 C 259.976 391.600,265.568 389.938,266.895 389.191 C 267.277 388.976,267.952 388.800,268.395 388.800 C 268.838 388.800,269.200 388.620,269.200 388.400 C 269.200 388.180,269.562 388.000,270.005 388.000 C 270.448 388.000,271.168 387.820,271.605 387.600 C 272.042 387.380,272.758 387.020,273.195 386.800 C 273.632 386.580,274.262 386.400,274.595 386.400 C 274.928 386.400,275.200 386.220,275.200 386.000 C 275.200 385.780,275.639 385.600,276.176 385.600 C 276.713 385.600,277.264 385.420,277.400 385.200 C 277.536 384.980,277.997 384.800,278.424 384.800 C 278.851 384.800,279.200 384.620,279.200 384.400 C 279.200 384.180,279.560 384.000,280.000 384.000 C 280.440 384.000,280.800 383.820,280.800 383.600 C 280.800 383.380,281.155 383.200,281.588 383.200 C 282.021 383.200,283.017 382.840,283.800 382.400 C 284.583 381.960,285.489 381.600,285.812 381.600 C 286.135 381.600,286.400 381.420,286.400 381.200 C 286.400 380.980,286.760 380.800,287.200 380.800 C 287.640 380.800,288.000 380.620,288.000 380.400 C 288.000 380.180,288.360 380.000,288.800 380.000 C 289.240 380.000,289.600 379.854,289.600 379.675 C 289.600 379.496,290.230 379.102,291.000 378.800 C 291.770 378.498,292.400 378.104,292.400 377.925 C 292.400 377.746,292.760 377.600,293.200 377.600 C 293.640 377.600,294.000 377.420,294.000 377.200 C 294.000 376.980,294.360 376.800,294.800 376.800 C 295.240 376.800,295.600 376.620,295.600 376.400 C 295.600 376.180,295.960 376.000,296.400 376.000 C 296.840 376.000,297.200 375.823,297.200 375.608 C 297.200 375.392,297.695 375.094,298.300 374.946 C 298.905 374.798,299.490 374.570,299.600 374.438 C 299.924 374.052,302.141 372.769,302.900 372.529 C 303.285 372.407,303.600 372.148,303.600 371.953 C 303.600 371.759,303.793 371.600,304.028 371.600 C 304.263 371.600,305.241 371.060,306.200 370.400 C 307.159 369.740,308.097 369.200,308.284 369.200 C 308.471 369.200,308.883 368.840,309.200 368.400 C 309.517 367.960,310.057 367.600,310.400 367.600 C 310.743 367.600,311.283 367.240,311.600 366.800 C 311.917 366.360,312.457 366.000,312.800 366.000 C 313.143 366.000,313.683 365.640,314.000 365.200 C 314.317 364.760,314.780 364.400,315.029 364.400 C 315.278 364.400,316.046 363.860,316.737 363.200 C 317.428 362.540,318.176 362.000,318.400 362.000 C 318.624 362.000,319.372 361.460,320.063 360.800 C 320.754 360.140,321.547 359.600,321.826 359.600 C 322.105 359.600,322.393 359.465,322.467 359.300 C 322.540 359.135,323.500 358.282,324.600 357.404 C 325.700 356.525,327.013 355.400,327.518 354.904 C 328.023 354.407,328.604 354.000,328.809 354.000 C 329.015 354.000,330.135 353.055,331.299 351.900 C 332.464 350.745,334.112 349.277,334.963 348.638 C 335.813 347.999,337.636 346.315,339.013 344.896 C 340.390 343.477,341.727 342.110,341.985 341.858 C 346.326 337.616,349.600 334.214,349.600 333.944 C 349.600 333.758,350.680 332.508,352.000 331.168 C 353.320 329.827,354.400 328.548,354.400 328.326 C 354.400 328.103,354.896 327.444,355.501 326.860 C 356.107 326.277,357.137 325.080,357.789 324.200 C 358.442 323.320,359.296 322.251,359.688 321.825 C 360.080 321.398,360.400 320.901,360.400 320.721 C 360.400 320.540,360.940 319.828,361.600 319.137 C 362.260 318.446,362.800 317.678,362.800 317.429 C 362.800 317.180,363.160 316.717,363.600 316.400 C 364.040 316.083,364.400 315.543,364.400 315.200 C 364.400 314.857,364.760 314.317,365.200 314.000 C 365.640 313.683,366.000 313.238,366.000 313.012 C 366.001 312.785,366.446 312.083,366.989 311.451 C 367.533 310.819,368.084 309.964,368.216 309.551 C 368.347 309.138,368.622 308.800,368.827 308.800 C 369.032 308.800,369.200 308.530,369.200 308.200 C 369.200 307.870,369.380 307.600,369.600 307.600 C 369.820 307.600,370.000 307.330,370.000 307.000 C 370.000 306.670,370.180 306.400,370.400 306.400 C 370.620 306.400,370.800 306.130,370.800 305.800 C 370.800 305.470,370.959 305.200,371.153 305.200 C 371.348 305.200,371.607 304.885,371.729 304.500 C 371.946 303.815,373.204 301.596,373.600 301.200 C 374.117 300.683,375.200 298.408,375.200 297.838 C 375.200 297.487,375.380 297.200,375.600 297.200 C 375.820 297.200,376.000 296.840,376.000 296.400 C 376.000 295.960,376.180 295.600,376.400 295.600 C 376.620 295.600,376.800 295.240,376.800 294.800 C 376.800 294.360,376.980 294.000,377.200 294.000 C 377.420 294.000,377.600 293.722,377.600 293.383 C 377.600 293.044,377.960 292.380,378.400 291.908 C 378.840 291.436,379.200 290.723,379.200 290.325 C 379.200 289.926,379.335 289.599,379.500 289.597 C 379.859 289.593,380.800 287.656,380.800 286.920 C 380.800 286.634,380.980 286.400,381.200 286.400 C 381.420 286.400,381.600 286.040,381.600 285.600 C 381.600 285.160,381.780 284.800,382.000 284.800 C 382.220 284.800,382.400 284.440,382.400 284.000 C 382.400 283.560,382.580 283.200,382.800 283.200 C 383.020 283.200,383.200 282.840,383.200 282.400 C 383.200 281.960,383.380 281.600,383.600 281.600 C 383.820 281.600,384.000 281.251,384.000 280.824 C 384.000 280.397,384.180 279.936,384.400 279.800 C 384.620 279.664,384.800 279.113,384.800 278.576 C 384.800 278.039,384.980 277.600,385.200 277.600 C 385.420 277.600,385.600 277.240,385.600 276.800 C 385.600 276.360,385.780 276.000,386.000 276.000 C 386.220 276.000,386.400 275.645,386.400 275.212 C 386.400 274.779,386.760 273.783,387.200 273.000 C 387.640 272.217,388.000 271.221,388.000 270.788 C 388.000 270.355,388.180 270.000,388.400 270.000 C 388.620 270.000,388.800 269.475,388.800 268.833 C 388.800 268.192,388.941 267.607,389.113 267.533 C 389.592 267.330,391.600 260.901,391.600 259.572 C 391.600 258.928,391.780 258.400,392.000 258.400 C 392.220 258.400,392.400 257.860,392.400 257.200 C 392.400 256.540,392.580 256.000,392.800 256.000 C 393.020 256.000,393.200 255.381,393.200 254.624 C 393.200 253.867,393.380 253.136,393.600 253.000 C 393.820 252.864,394.000 252.234,394.000 251.600 C 394.000 250.966,394.180 250.336,394.400 250.200 C 394.620 250.064,394.800 249.344,394.800 248.600 C 394.800 247.856,394.980 247.136,395.200 247.000 C 395.420 246.864,395.600 245.953,395.600 244.976 C 395.600 243.999,395.780 243.200,396.000 243.200 C 396.220 243.200,396.400 242.390,396.400 241.400 C 396.400 240.410,396.580 239.600,396.800 239.600 C 397.020 239.600,397.200 238.700,397.200 237.600 C 397.200 236.500,397.380 235.600,397.600 235.600 C 397.822 235.600,398.000 234.533,398.000 233.200 C 398.000 231.867,398.178 230.800,398.400 230.800 C 398.628 230.800,398.800 229.611,398.800 228.033 C 398.800 226.176,398.964 225.212,399.300 225.100 C 399.693 224.969,399.800 219.591,399.800 200.000 C 399.800 180.409,399.693 175.031,399.300 174.900 C 398.960 174.787,398.800 173.784,398.800 171.767 C 398.800 170.056,398.631 168.800,398.400 168.800 C 398.178 168.800,398.000 167.733,398.000 166.400 C 398.000 165.067,397.822 164.000,397.600 164.000 C 397.380 164.000,397.200 163.100,397.200 162.000 C 397.200 160.900,397.020 160.000,396.800 160.000 C 396.580 160.000,396.400 159.201,396.400 158.224 C 396.400 157.247,396.220 156.336,396.000 156.200 C 395.780 156.064,395.600 155.243,395.600 154.376 C 395.600 153.509,395.420 152.800,395.200 152.800 C 394.980 152.800,394.800 152.080,394.800 151.200 C 394.800 150.320,394.620 149.600,394.400 149.600 C 394.180 149.600,394.000 148.981,394.000 148.224 C 394.000 147.467,393.820 146.736,393.600 146.600 C 393.380 146.464,393.200 145.834,393.200 145.200 C 393.200 144.566,393.020 143.936,392.800 143.800 C 392.580 143.664,392.400 143.023,392.400 142.376 C 392.400 141.729,392.241 141.200,392.046 141.200 C 391.851 141.200,391.569 140.213,391.418 139.006 C 391.267 137.800,390.977 136.709,390.772 136.583 C 390.567 136.456,390.400 135.924,390.400 135.400 C 390.400 134.876,390.220 134.336,390.000 134.200 C 389.780 134.064,389.600 133.601,389.600 133.171 C 389.600 132.741,389.441 132.077,389.247 131.695 C 389.052 131.313,388.671 130.460,388.400 129.800 C 388.129 129.140,387.748 128.287,387.553 127.905 C 387.359 127.523,387.200 126.848,387.200 126.405 C 387.200 125.962,387.020 125.600,386.800 125.600 C 386.580 125.600,386.400 125.240,386.400 124.800 C 386.400 124.360,386.220 124.000,386.000 124.000 C 385.780 124.000,385.600 123.460,385.600 122.800 C 385.600 122.140,385.420 121.600,385.200 121.600 C 384.980 121.600,384.800 121.240,384.800 120.800 C 384.800 120.360,384.620 120.000,384.400 120.000 C 384.180 120.000,384.000 119.640,384.000 119.200 C 384.000 118.760,383.820 118.400,383.600 118.400 C 383.380 118.400,383.200 117.950,383.200 117.400 C 383.200 116.850,383.020 116.400,382.800 116.400 C 382.580 116.400,382.400 116.155,382.400 115.856 C 382.400 115.199,379.924 110.255,379.500 110.067 C 379.335 109.993,379.200 109.588,379.200 109.167 C 379.200 108.745,379.020 108.400,378.800 108.400 C 378.580 108.400,378.400 108.040,378.400 107.600 C 378.400 107.160,378.220 106.800,378.000 106.800 C 377.780 106.800,377.600 106.440,377.600 106.000 C 377.600 105.560,377.420 105.200,377.200 105.200 C 376.980 105.200,376.800 104.906,376.800 104.547 C 376.800 104.188,376.469 103.603,376.064 103.247 C 375.659 102.891,375.196 102.067,375.035 101.415 C 374.874 100.764,374.260 99.504,373.671 98.615 C 373.082 97.727,372.346 96.508,372.036 95.907 C 371.726 95.305,371.141 94.458,370.736 94.023 C 370.331 93.589,370.000 92.996,370.000 92.705 C 370.000 92.414,369.640 91.917,369.200 91.600 C 368.760 91.283,368.400 90.743,368.400 90.400 C 368.400 90.057,368.040 89.517,367.600 89.200 C 367.160 88.883,366.800 88.343,366.800 88.000 C 366.800 87.657,366.440 87.117,366.000 86.800 C 365.560 86.483,365.200 85.943,365.200 85.600 C 365.200 85.257,364.840 84.717,364.400 84.400 C 363.960 84.083,363.600 83.620,363.600 83.371 C 363.600 83.122,363.060 82.354,362.400 81.663 C 361.740 80.972,361.200 80.252,361.200 80.063 C 361.200 79.874,360.660 79.154,360.000 78.463 C 359.340 77.772,358.800 77.032,358.800 76.817 C 358.800 76.602,358.170 75.797,357.400 75.027 C 356.630 74.257,356.000 73.459,356.000 73.254 C 356.000 73.049,355.100 71.962,354.000 70.839 C 352.900 69.715,352.000 68.641,352.000 68.452 C 352.000 68.262,350.213 66.328,348.030 64.154 C 342.013 58.162,341.733 57.881,336.866 52.973 C 334.372 50.458,332.187 48.400,332.011 48.400 C 331.835 48.400,330.744 47.511,329.586 46.424 C 328.429 45.337,326.974 44.238,326.354 43.981 C 325.734 43.724,325.118 43.173,324.986 42.757 C 324.854 42.341,324.488 42.000,324.173 42.000 C 323.858 42.000,323.600 41.820,323.600 41.600 C 323.600 41.380,323.402 41.200,323.160 41.200 C 322.919 41.200,322.217 40.660,321.600 40.000 C 320.983 39.340,320.280 38.800,320.036 38.800 C 319.792 38.800,319.028 38.260,318.337 37.600 C 317.646 36.940,316.878 36.400,316.629 36.400 C 316.380 36.400,315.917 36.040,315.600 35.600 C 315.283 35.160,314.743 34.800,314.400 34.800 C 314.057 34.800,313.517 34.440,313.200 34.000 C 312.883 33.560,312.343 33.200,312.000 33.200 C 311.657 33.200,311.117 32.840,310.800 32.400 C 310.483 31.960,309.943 31.600,309.600 31.600 C 309.257 31.600,308.717 31.240,308.400 30.800 C 308.083 30.360,307.671 30.000,307.484 30.000 C 307.297 30.000,306.392 29.498,305.472 28.884 C 304.552 28.270,303.037 27.415,302.105 26.984 C 301.172 26.553,300.407 26.065,300.405 25.900 C 300.402 25.735,300.040 25.600,299.600 25.600 C 299.160 25.600,298.800 25.420,298.800 25.200 C 298.800 24.980,298.522 24.800,298.183 24.800 C 297.844 24.800,297.180 24.440,296.708 24.000 C 296.236 23.560,295.613 23.200,295.325 23.200 C 295.036 23.200,294.800 23.020,294.800 22.800 C 294.800 22.580,294.440 22.400,294.000 22.400 C 293.560 22.400,293.200 22.220,293.200 22.000 C 293.200 21.780,292.855 21.600,292.433 21.600 C 292.012 21.600,291.607 21.463,291.533 21.296 C 291.460 21.129,289.780 20.211,287.800 19.255 C 285.820 18.300,283.887 17.357,283.505 17.159 C 283.123 16.962,282.538 16.800,282.205 16.800 C 281.872 16.800,281.600 16.620,281.600 16.400 C 281.600 16.180,281.240 16.000,280.800 16.000 C 280.360 16.000,280.000 15.820,280.000 15.600 C 280.000 15.380,279.651 15.200,279.224 15.200 C 278.797 15.200,278.336 15.020,278.200 14.800 C 278.064 14.580,277.513 14.400,276.976 14.400 C 276.439 14.400,276.000 14.220,276.000 14.000 C 276.000 13.780,275.728 13.600,275.395 13.600 C 275.062 13.600,274.477 13.441,274.095 13.247 C 273.713 13.052,272.950 12.716,272.400 12.500 C 271.850 12.284,270.950 11.912,270.400 11.674 C 268.469 10.837,265.562 10.000,264.586 10.000 C 264.044 10.000,263.600 9.820,263.600 9.600 C 263.600 9.380,263.060 9.200,262.400 9.200 C 261.740 9.200,261.200 9.020,261.200 8.800 C 261.200 8.580,260.660 8.400,260.000 8.400 C 259.340 8.400,258.800 8.220,258.800 8.000 C 258.800 7.780,258.170 7.600,257.400 7.600 C 256.630 7.600,256.000 7.420,256.000 7.200 C 256.000 6.980,255.471 6.800,254.824 6.800 C 254.177 6.800,253.536 6.620,253.400 6.400 C 253.264 6.180,252.533 6.000,251.776 6.000 C 251.019 6.000,250.400 5.820,250.400 5.600 C 250.400 5.380,249.680 5.200,248.800 5.200 C 247.920 5.200,247.200 5.020,247.200 4.800 C 247.200 4.580,246.401 4.400,245.424 4.400 C 244.447 4.400,243.536 4.220,243.400 4.000 C 243.264 3.780,242.443 3.600,241.576 3.600 C 240.709 3.600,240.000 3.420,240.000 3.200 C 240.000 2.980,239.111 2.800,238.024 2.800 C 236.937 2.800,235.936 2.620,235.800 2.400 C 235.664 2.180,234.584 2.000,233.400 2.000 C 232.216 2.000,231.136 1.820,231.000 1.600 C 230.864 1.380,229.518 1.200,228.010 1.200 C 226.213 1.200,225.211 1.032,225.105 0.714 C 224.944 0.233,187.802 -0.118,178.500 0.274 M215.425 48.994 C 217.831 49.320,220.250 49.691,220.800 49.818 C 221.350 49.945,222.610 50.239,223.600 50.470 C 225.946 51.019,232.213 53.066,234.000 53.868 C 244.001 58.352,249.894 62.209,257.073 68.967 C 270.853 81.939,279.448 98.491,283.157 119.200 C 283.783 122.693,284.560 132.205,284.280 132.936 C 284.046 133.544,282.067 133.600,260.659 133.600 L 237.293 133.600 237.052 132.700 C 236.919 132.205,236.808 130.900,236.805 129.800 C 236.742 108.117,214.722 89.833,197.794 97.409 C 197.131 97.705,196.141 98.119,195.594 98.327 C 190.813 100.150,183.291 108.553,180.311 115.400 C 176.596 123.936,176.335 126.804,176.480 157.400 L 176.600 182.600 211.800 182.800 L 247.000 183.000 247.000 206.600 L 247.000 230.200 211.800 230.400 L 176.600 230.600 176.477 253.000 C 176.354 275.406,176.535 279.741,177.801 284.600 C 185.727 315.024,216.381 321.185,231.480 295.390 C 234.190 290.758,236.795 282.121,236.805 277.729 C 236.808 276.448,236.919 274.995,237.052 274.500 L 237.293 273.600 260.847 273.600 L 284.400 273.600 284.399 275.300 C 284.388 300.167,271.528 327.159,252.416 342.428 C 212.187 374.568,154.748 357.242,135.623 307.200 C 134.908 305.330,134.181 303.440,134.007 303.000 C 133.834 302.560,133.470 301.390,133.199 300.400 C 132.929 299.410,132.565 298.150,132.392 297.600 C 131.947 296.190,131.326 293.407,130.828 290.600 C 130.595 289.280,130.202 287.210,129.956 286.000 C 129.664 284.568,129.442 274.477,129.320 257.100 L 129.132 230.400 103.009 230.400 C 79.557 230.400,76.861 230.335,76.643 229.767 C 76.326 228.941,76.326 184.259,76.643 183.433 C 76.861 182.865,79.557 182.800,103.011 182.800 L 129.137 182.800 129.309 153.300 C 129.454 128.356,129.580 123.275,130.125 120.400 C 130.479 118.530,130.952 116.010,131.175 114.800 C 131.710 111.907,132.643 108.434,133.916 104.600 C 141.038 83.151,156.239 65.153,174.905 56.067 C 181.966 52.630,182.123 52.571,189.200 50.682 C 197.415 48.489,207.110 47.865,215.425 48.994 " stroke="none" fill="#3189cc" fill-rule="evenodd"></path></g></svg>